<svg width="32" height="32" viewBox="0 0 32 32" fill="none" xmlns="http://www.w3.org/2000/svg">
<path d="M0.678765 0.0975689C0.414404 0.239506 0.178622 0.531729 0.0785939 0.840651C0.0214347 0.999286 0 3.68774 0 9.34017C0 16.1281 0.0142898 17.6477 0.100029 17.8731C0.221492 18.2321 0.585882 18.5828 0.893112 18.6496L1.14318 18.6997L1.15747 24.9449C1.17891 31.1066 1.17891 31.1985 1.32895 31.4239C1.40754 31.5491 1.56473 31.7328 1.67191 31.8247L1.86482 32H16.0046H30.1443L30.3372 31.8247C30.4444 31.7328 30.6016 31.5491 30.6802 31.4239C30.8302 31.1985 30.8302 31.1066 30.8517 24.9449L30.866 18.6997L31.116 18.6496C31.4518 18.5744 31.8448 18.157 31.9377 17.7813C31.9948 17.5725 32.0091 14.834 31.9948 9.14814C31.9734 0.890746 31.9734 0.823952 31.8234 0.598523C31.7448 0.473284 31.5876 0.289601 31.4804 0.19776C31.2875 0.030775 31.2018 0.0224257 28.5796 0.0224257C25.9574 0.0224257 25.8717 0.030775 25.6788 0.19776C25.2501 0.565126 25.1858 0.757159 25.1643 1.74237L25.1357 2.65244H16.0046H6.87339L6.84481 1.74237C6.82338 0.757159 6.75907 0.565126 6.33038 0.19776C6.14461 0.030775 6.03744 0.0224257 3.51529 0.00572726C1.43612 -0.0109712 0.850243 0.00572726 0.678765 0.0975689ZM4.57273 9.33182V16.0112H3.42955H2.28637V9.33182V2.65244H3.42955H4.57273V9.33182ZM29.7228 9.33182V16.0112H28.5796H27.4364V9.33182V2.65244H28.5796H29.7228V9.33182ZM19.2198 12.2374C19.7342 12.5296 20.0343 12.8636 20.2987 13.4396L20.5416 13.9657V17.3471V20.7285L20.2987 21.2545C20.0271 21.839 19.7985 22.0978 19.2626 22.4151C18.9411 22.6071 18.7911 22.6405 18.0266 22.6739L17.162 22.7073L17.1335 23.609C17.112 24.5859 17.0477 24.7779 16.619 25.1453C16.3404 25.3874 15.6688 25.3874 15.3901 25.1453C14.9614 24.7779 14.8971 24.5859 14.8757 23.609L14.8471 22.7073L13.9826 22.6739C13.1538 22.6405 13.0895 22.6238 12.6608 22.3566C12.1749 22.0561 11.882 21.7054 11.6319 21.1042C11.4676 20.7369 11.4676 20.6868 11.4676 17.3471V13.9657L11.6462 13.5482C11.9463 12.8302 12.5321 12.2708 13.1823 12.0787C13.3038 12.0453 14.6327 12.0203 16.1475 12.0286C18.8482 12.0453 18.9054 12.0453 19.2198 12.2374ZM5.71592 24.0265V29.37H4.57273H3.42955V24.0265V18.683H4.57273H5.71592V24.0265ZM28.5796 24.0265V29.37H27.4364H26.2932V24.0265V18.683H27.4364H28.5796V24.0265Z" fill="#474747"/>
<path d="M13.7188 17.347V20.0188H16.0051H18.2915V17.347V14.6753H16.0051H13.7188V17.347Z" fill="#474747"/>
</svg>
