<svg width="32" height="32" viewBox="0 0 32 32" fill="none" xmlns="http://www.w3.org/2000/svg">
<path d="M14.9388 0.0880765C14.3481 0.188055 13.9017 0.325526 13.3591 0.569224C12.7753 0.837917 3.14602 5.89309 2.6103 6.21177C2.17073 6.48046 1.16797 7.35528 1.16797 7.48025C1.16797 7.56148 15.3165 15.6723 15.6531 15.7785C15.9827 15.8847 16.6764 15.8847 17.013 15.7785C17.2465 15.7035 20.0693 14.1038 29.5544 8.64875C30.3717 8.1801 31.0448 7.76769 31.0448 7.7427C31.0448 7.54899 29.9047 6.49921 29.3209 6.16803C28.7233 5.81811 19.1696 0.806673 18.682 0.581721C17.5144 0.0505845 16.1888 -0.124378 14.9388 0.0880765ZM16.9443 5.21198C17.4251 5.41194 17.8853 5.81186 18.1119 6.23677C18.2767 6.54295 18.3042 6.66168 18.3042 7.14907C18.3042 7.63647 18.2767 7.75519 18.1119 8.06138C17.7822 8.67375 17.1503 9.10491 16.3948 9.23613C15.3989 9.40484 14.3481 8.9112 13.8948 8.06138C13.73 7.75519 13.7025 7.63647 13.7025 7.14907C13.7025 6.66168 13.73 6.54295 13.8948 6.23677C14.2039 5.66189 14.8701 5.18074 15.5432 5.05577C15.9553 4.98078 16.5322 5.04327 16.9443 5.21198Z" fill="#474747"/>
<path d="M0.590677 8.2988C0.563204 8.33004 0.467048 8.54875 0.370893 8.77995C-0.00685977 9.69225 8.45581e-06 9.57978 8.45581e-06 15.9909C8.45581e-06 22.4083 -0.00685977 22.2833 0.377761 23.2144C0.741778 24.1017 1.56597 25.0827 2.39702 25.6389C2.90527 25.9763 13.242 31.3814 13.7365 31.5688C14.2928 31.775 14.8148 31.9 15.4055 31.9563L15.8656 32L15.8519 24.3391L15.8313 16.672L15.3849 16.5345C15.062 16.4346 12.9741 15.2661 7.87787 12.3479C3.99732 10.1234 0.776119 8.2863 0.728041 8.26756C0.673095 8.24881 0.611281 8.26131 0.590677 8.2988ZM10.6938 16.8407C11.4219 17.2219 12.2255 18.3717 12.4727 19.3902C12.7337 20.5087 12.3766 21.321 11.6211 21.3148C10.5565 21.3023 9.24465 19.6026 9.15536 18.1155C9.11415 17.4718 9.20344 17.1219 9.47817 16.872C9.80098 16.5845 10.1787 16.572 10.6938 16.8407ZM3.42039 19.9026C3.92177 20.1275 4.4781 20.7087 4.84898 21.396C5.213 22.0771 5.35723 22.5645 5.35723 23.1331C5.35723 23.708 5.24734 24.0142 4.96574 24.2392C4.30639 24.764 3.18 24.1017 2.47257 22.777C1.91625 21.7334 1.79262 20.7836 2.12916 20.1775C2.38329 19.7276 2.82285 19.6339 3.42039 19.9026Z" fill="#474747"/>
<path d="M25.5492 11.9043C22.2799 13.7789 19.1686 15.566 18.6397 15.8722C18.0765 16.1909 17.4721 16.4846 17.2111 16.5596L16.7578 16.697V24.3079C16.7578 31.6189 16.7647 31.925 16.8814 31.925C17.1699 31.925 18.1315 31.6501 18.6122 31.4314C18.8938 31.3002 20.5353 30.4566 22.2524 29.5506C23.9695 28.6507 26.2566 27.4448 27.3349 26.8761C29.5945 25.6889 29.7594 25.5889 30.405 24.964C31.2017 24.2079 31.7443 23.2269 31.9297 22.2084C31.9916 21.8834 32.0122 20.1963 31.9916 15.741C31.9641 9.22363 31.9847 9.49857 31.6069 8.72999L31.4902 8.48629L25.5492 11.9043ZM29.7937 12.1605C30.0616 12.3105 30.2196 12.7104 30.2196 13.2665C30.2196 14.1101 29.8624 15.0286 29.2374 15.7785C28.7291 16.3909 28.2346 16.6783 27.7058 16.6783C26.2634 16.6783 26.6481 13.8476 28.2758 12.4917C28.8322 12.0293 29.361 11.9168 29.7937 12.1605ZM22.0464 16.9032C22.3211 17.1907 22.4172 17.5469 22.3692 18.1155C22.2661 19.284 21.4213 20.6587 20.501 21.1523C20.1439 21.3398 19.6768 21.3648 19.4158 21.2148C18.9831 20.9524 18.8389 20.1276 19.0793 19.2527C19.5944 17.4156 21.2634 16.0909 22.0464 16.9032ZM29.7937 19.9026C30.0616 20.0651 30.2196 20.4587 30.2196 21.0149C30.2196 21.8584 29.8624 22.777 29.2374 23.5268C28.7291 24.1392 28.2346 24.4266 27.7058 24.4266C26.2634 24.4266 26.6481 21.596 28.2758 20.24C28.8322 19.7776 29.3748 19.6589 29.7937 19.9026ZM21.9159 24.5079C21.9845 24.5454 22.1082 24.6891 22.1975 24.8266C22.4241 25.189 22.4241 26.0763 22.1906 26.7074C21.9502 27.3698 21.5793 27.9759 21.1329 28.407C20.6658 28.857 20.2812 29.0507 19.8348 29.0507C18.3925 29.0507 18.832 26.1075 20.4667 24.8203C21.0092 24.3954 21.5244 24.2829 21.9159 24.5079Z" fill="#474747"/>
</svg>
