<svg width="32" height="32" viewBox="0 0 32 32" fill="none" xmlns="http://www.w3.org/2000/svg">
<path d="M9.88762 0.0593244C9.71868 0.103121 9.47466 0.184458 9.35578 0.247025C9.2369 0.309592 7.1596 2.33676 4.74443 4.75185C-0.229827 9.7134 0.00167875 9.44437 0.00167875 10.3891C0.00167875 11.3339 -0.22357 11.0648 4.74443 16.0327C9.7312 21.0255 9.43712 20.7752 10.4195 20.7752C11.2641 20.7752 11.2954 20.7565 13.4541 18.6104L15.3311 16.7459L15.3124 23.5282C15.2999 30.2479 15.2999 30.3104 15.425 30.6546C15.6002 31.1113 16.0382 31.5743 16.52 31.7995L16.8954 31.9747L23.4026 31.9935C30.1601 32.0123 30.3916 32.006 30.8796 31.7557C31.2175 31.5806 31.6304 31.1426 31.8119 30.7547L31.9746 30.4105L31.9933 23.841C32.0121 17.1026 32.0058 16.8585 31.7743 16.4018C31.6179 16.1015 31.1799 15.676 30.8733 15.5134C30.7107 15.432 30.3853 15.3382 30.1475 15.3006C29.6345 15.2193 17.1019 15.2443 16.8641 15.3257C16.7765 15.3569 17.5148 14.5686 18.6223 13.4487C20.3805 11.6717 20.5494 11.484 20.6746 11.1524C20.8498 10.6769 20.8498 10.1013 20.6746 9.62581C20.5494 9.28169 20.3179 9.03768 16.1195 4.83318C12.259 0.960288 11.6521 0.378416 11.3267 0.221998C10.8762 0.00301412 10.3381 -0.0595528 9.88762 0.0593244ZM10.8199 3.48799C11.3455 3.64441 11.796 4.28259 11.796 4.85821C11.796 5.17104 11.5332 5.68409 11.2704 5.88431C10.2318 6.67265 8.77389 5.7842 9.04919 4.53912C9.23064 3.71323 10.0128 3.25024 10.8199 3.48799ZM11.0326 9.16281C11.1578 9.22538 11.3267 9.35052 11.4018 9.43185C11.6083 9.65084 11.796 10.1076 11.796 10.3891C11.796 10.6707 11.6083 11.1274 11.4018 11.3464C10.8512 11.9408 9.76248 11.872 9.29321 11.2213C8.43601 10.0388 9.7312 8.49961 11.0326 9.16281ZM10.9826 14.7188C11.1015 14.7688 11.2704 14.8689 11.3517 14.944C11.5645 15.1442 11.796 15.6635 11.796 15.9576C11.796 16.2516 11.5645 16.771 11.3517 16.9712C11.2704 17.0462 11.0639 17.1714 10.895 17.2465C9.9189 17.6782 8.81769 16.7459 9.04919 15.676C9.2369 14.8064 10.1191 14.3684 10.9826 14.7188ZM19.9926 18.185C20.5369 18.429 20.8247 18.8544 20.831 19.4363C20.8435 20.3122 20.0676 20.9504 19.1854 20.794C18.0654 20.6001 17.69 19.0984 18.5847 18.3852C19.0165 18.0411 19.517 17.966 19.9926 18.185ZM28.527 18.2663C29.2528 18.6918 29.4217 19.7116 28.8586 20.3435C28.308 20.9755 27.3194 20.9817 26.7813 20.3498C26.287 19.7742 26.3308 18.9733 26.8939 18.4415C27.3319 18.0223 27.9952 17.9535 28.527 18.2663ZM24.0658 22.3081C24.1847 22.3394 24.4037 22.4708 24.5413 22.5897C25.1733 23.1278 25.167 24.1163 24.5351 24.6669C24.2473 24.9234 23.9344 25.0173 23.4964 24.986C22.389 24.9047 21.8571 23.5657 22.6079 22.7336C22.9959 22.3019 23.5027 22.1517 24.0658 22.3081ZM20.0301 26.5564C20.8498 26.9256 21.0938 28.008 20.5056 28.69C19.5671 29.7911 17.7839 28.8964 18.1155 27.4949C18.3157 26.669 19.2605 26.2061 20.0301 26.5564ZM28.333 26.5189C28.8711 26.7441 29.1902 27.2259 29.1902 27.814C29.1902 28.6587 28.552 29.2405 27.7136 29.1717C26.9941 29.1154 26.4372 28.521 26.4372 27.814C26.4372 27.2634 26.9127 26.6065 27.407 26.4813C27.6573 26.4188 28.1328 26.4375 28.333 26.5189Z" fill="#474747"/>
</svg>
