<svg width="50" height="33" viewBox="0 0 50 33" fill="none" xmlns="http://www.w3.org/2000/svg">
<path d="M48.9507 0.0934845C49.6995 0.325902 50.1242 0.943011 49.9677 1.54409C49.8672 1.92077 49.3084 2.36156 48.8054 2.46575C48.5149 2.52986 41.1052 2.54589 24.7324 2.52986L1.07289 2.50582L0.771142 2.33752C0.178816 2.02496 1.19209e-06 1.76849 1.19209e-06 1.26359C1.19209e-06 0.75868 0.178816 0.502219 0.771142 0.189657L1.07289 0.021355L24.8442 0.00532608C44.4356 -0.0107027 48.6713 0.00532607 48.9507 0.0934845Z" fill="white"/>
<path d="M48.9507 15.3259C49.6995 15.5583 50.1242 16.1754 49.9677 16.7765C49.8672 17.1532 49.3084 17.594 48.8054 17.6982C48.5149 17.7623 42.1781 17.7783 28.3087 17.7623L8.22551 17.7382L7.92376 17.5699C7.33144 17.2574 7.15262 17.0009 7.15262 16.496C7.15262 15.9911 7.33144 15.7346 7.92376 15.4221L8.22551 15.2538L28.4205 15.2377C45.0391 15.2217 48.6713 15.2377 48.9507 15.3259Z" fill="white"/>
<path d="M48.9507 30.5578C49.6995 30.7903 50.1242 31.4074 49.9677 32.0084C49.8672 32.3851 49.3084 32.8259 48.8054 32.9301C48.526 32.9942 44.5921 33.0102 36.3554 32.9942C24.4083 32.9702 24.3189 32.9702 24.0172 32.8019C23.4248 32.4893 23.246 32.2329 23.246 31.7279C23.246 31.223 23.4248 30.9666 24.0172 30.654C24.3189 30.4857 24.3971 30.4857 36.4672 30.4697C46.3914 30.4537 48.6825 30.4697 48.9507 30.5578Z" fill="white"/>
</svg>
