<svg width="32" height="32" viewBox="0 0 32 32" fill="none" xmlns="http://www.w3.org/2000/svg">
<path d="M2.67986 0.131307C2.2673 0.31888 2.12504 0.62525 2.12504 1.31302V1.87574H1.48486C0.688191 1.87574 0.353876 2.00079 0.13337 2.37593C-0.0444568 2.68855 -0.0444568 2.93865 0.13337 3.25127C0.353876 3.62642 0.688191 3.75147 1.48486 3.75147H2.12504V4.31419C2.12504 4.75811 2.15349 4.93318 2.2673 5.127C2.4309 5.40836 2.83634 5.6272 3.192 5.6272C3.54765 5.6272 3.9531 5.40836 4.1167 5.127C4.23051 4.93318 4.25896 4.75811 4.25896 4.31419V3.75147H4.89914C5.69581 3.75147 6.03012 3.62642 6.25063 3.25127C6.42846 2.93865 6.42846 2.68855 6.25063 2.37593C6.03012 2.00079 5.69581 1.87574 4.89914 1.87574H4.25896V1.31302C4.25896 0.612745 4.1167 0.31888 3.68992 0.125055C3.34137 -0.031256 3.02129 -0.031256 2.67986 0.131307Z" fill="#EDEAE5"/>
<path d="M9.11778 0.125057C8.90439 0.225096 8.77635 0.33764 8.66254 0.537718C8.46337 0.906612 8.49894 1.09418 8.94706 1.93201C9.81486 3.55764 10.2986 5.05198 10.5191 6.82767C10.5546 7.1653 10.5902 7.45291 10.5902 7.47167C10.5902 7.49042 13.0229 7.50293 15.9961 7.50293C18.9694 7.50293 21.4021 7.49042 21.4021 7.47167C21.4021 7.45291 21.4377 7.1653 21.4732 6.82767C21.6937 5.05198 22.1774 3.55764 23.0452 1.93201C23.4933 1.09418 23.5289 0.906612 23.3297 0.537718C23.1306 0.187582 22.6824 -0.0375058 22.2699 0.0187661C22.1276 0.0437758 21.1816 0.412669 20.1786 0.856592L18.3435 1.65065L17.5112 0.925369C16.6292 0.168824 16.3589 8.76188e-06 15.9961 8.76188e-06C15.6334 8.76188e-06 15.3631 0.168824 14.481 0.925369L13.6488 1.65065L11.8136 0.85034C10.7325 0.381407 9.87177 0.0437758 9.70105 0.0250185C9.50189 8.76188e-06 9.33117 0.0312709 9.11778 0.125057Z" fill="#EDEAE5"/>
<path d="M28.2864 5.821C27.8738 6.00858 27.7316 6.31495 27.7316 7.00271V7.56543H27.0914C26.5864 7.56543 26.3872 7.59044 26.1667 7.69048C25.8466 7.83429 25.5977 8.19068 25.5977 8.5033C25.5977 8.81592 25.8466 9.17231 26.1667 9.31612C26.3872 9.41615 26.5864 9.44116 27.0914 9.44116H27.7316V10.0039C27.7316 10.4478 27.76 10.6229 27.8738 10.8167C28.0374 11.0981 28.4429 11.3169 28.7985 11.3169C29.1542 11.3169 29.5596 11.0981 29.7232 10.8167C29.8371 10.6229 29.8655 10.4478 29.8655 10.0039V9.44116H30.5057C31.0107 9.44116 31.2099 9.41615 31.4304 9.31612C31.7505 9.17231 31.9994 8.81592 31.9994 8.5033C31.9994 8.19068 31.7505 7.83429 31.4304 7.69048C31.2099 7.59044 31.0107 7.56543 30.5057 7.56543H29.8655V7.00271C29.8655 6.30244 29.7232 6.00858 29.2965 5.81475C28.9479 5.65844 28.6278 5.65844 28.2864 5.821Z" fill="#EDEAE5"/>
<path d="M2.67928 9.57235C1.96086 9.90373 1.96086 10.8166 2.66505 11.173C3.20565 11.4481 3.87428 11.273 4.12324 10.7978C4.29395 10.4602 4.29395 10.2476 4.11612 9.94124C3.85294 9.48482 3.21276 9.32225 2.67928 9.57235Z" fill="#EDEAE5"/>
<path d="M7.4671 11.5608C4.48671 14.737 4.28755 14.9808 3.51222 16.3876C1.94734 19.2512 1.7055 22.6901 2.87916 25.4287C3.38419 26.6104 4.19508 27.6983 5.25493 28.6362C6.7629 29.9742 8.64076 30.8933 10.981 31.4497C14.6086 32.3126 19.1183 32.15 22.4686 31.0371C26.4235 29.7241 29.0909 26.9355 29.6955 23.4779C30.1934 20.608 29.4679 17.6256 27.6754 15.1309C27.2984 14.6182 26.9712 14.2493 24.6523 11.7358L22.5326 9.44118H15.9957H9.46588L7.4671 11.5608ZM16.4936 13.3802C16.956 13.5865 17.0627 13.8491 17.0627 14.7808V15.5623L17.4894 15.7624C18.0087 16.0062 18.6204 16.5627 18.8623 17.0191C19.0828 17.4255 19.225 18.0758 19.161 18.3759C19.0614 18.8386 18.656 19.1325 18.1154 19.1325C17.525 19.1325 17.148 18.8011 17.0555 18.2071C16.9631 17.6319 16.5505 17.2942 15.9388 17.3067C15.1563 17.313 14.6584 18.1321 15.0923 18.6948C15.32 19.0011 15.5974 19.1137 16.2731 19.1825C18.5706 19.4263 19.851 21.5021 18.7911 23.2778C18.4995 23.7655 17.9376 24.2532 17.4112 24.4595L17.0627 24.6033V25.1223C17.0627 25.5162 17.0271 25.6975 16.9204 25.8851C16.7568 26.1664 16.3513 26.3853 15.9957 26.3853C15.64 26.3853 15.2346 26.1664 15.071 25.8851C14.9643 25.6975 14.9287 25.5162 14.9287 25.1223V24.6033L14.6015 24.4845C14.2032 24.3407 13.4919 23.778 13.2429 23.4029C12.9869 23.0215 12.7948 22.4337 12.7948 22.0461C12.7948 21.4896 13.2287 21.0645 13.8049 21.0582C14.4166 21.0457 14.8291 21.3833 14.9216 21.9586C15.0141 22.5588 15.3911 22.8839 16.0028 22.8839C16.4438 22.8839 16.771 22.6838 16.9488 22.3087C17.2689 21.6272 16.6857 21.0144 15.7112 21.0082C15.1137 21.0082 14.2672 20.658 13.748 20.2016C12.2186 18.8573 12.5956 16.6565 14.5019 15.7624L14.9287 15.5623V14.7808C14.9287 14.1243 14.9501 13.9617 15.071 13.7554C15.3342 13.2989 15.953 13.1364 16.4936 13.3802Z" fill="#EDEAE5"/>
</svg>
