<svg width="60" height="36" viewBox="0 0 60 36" fill="none" xmlns="http://www.w3.org/2000/svg">
<path d="M20.3861 13.6071C18.4985 13.6071 7.55041 -2.04185e-05 4.15273 0C0.755041 2.04185e-05 0 3.67759 0 3.67759V30.8917C3.17485 37.7418 5.23783 37.6636 9.43802 30.8917V15.4459L18.876 24.2721C20.4951 25.973 21.4097 25.9134 23.0288 24.2721L33.2218 11.7683L37.7521 18.3879L33.2218 24.2721C27.5657 31.2976 27.4665 33.7407 33.2218 35.3048H57.3831C60.622 32.1451 60.8826 30.3737 57.3831 27.2141C57.3831 27.2141 42.6598 27.9497 42.2823 27.2141C41.9048 26.4786 48.7002 20.2267 48.7002 18.3879C48.7002 16.5491 42.2823 9.19397 42.2823 9.19397H57.3831C60.8102 5.74834 60.9338 3.81317 57.3831 0.367759C57.3831 0.367759 33.2218 0 30.9567 0.367759C28.6916 0.735517 22.2737 13.6071 20.3861 13.6071Z" fill="white"/>
</svg>
