<svg width="40" height="24" viewBox="0 0 40 24" fill="none" xmlns="http://www.w3.org/2000/svg">
<path d="M13.5907 9.07138C12.3323 9.07138 5.03361 -1.36123e-05 2.76849 0C0.503361 1.36123e-05 0 2.45172 0 2.45172V20.5945C2.11657 25.1612 3.49189 25.109 6.29201 20.5945V10.2972L12.584 16.1814C13.6634 17.3153 14.2731 17.2756 15.3525 16.1814L22.1479 7.84552L25.168 12.2586L22.1479 16.1814C18.3771 20.8651 18.311 22.4938 22.1479 23.5366H38.2554C40.4146 21.4301 40.5884 20.2491 38.2554 18.1428C38.2554 18.1428 28.4399 18.6331 28.1882 18.1428C27.9365 17.6524 32.4668 13.4845 32.4668 12.2586C32.4668 11.0328 28.1882 6.12931 28.1882 6.12931H38.2554C40.5401 3.83223 40.6226 2.54212 38.2554 0.245172C38.2554 0.245172 22.1479 0 20.6378 0.245172C19.1277 0.490345 14.8491 9.07138 13.5907 9.07138Z" fill="white"/>
</svg>
