<svg width="32" height="32" viewBox="0 0 32 32" fill="none" xmlns="http://www.w3.org/2000/svg">
<path d="M8.03486 3.5785C4.24796 5.52698 1.14578 7.15071 1.1388 7.17569C1.12482 7.20692 2.29862 7.83767 3.73792 8.58084L6.35801 9.93604L10.606 7.744C12.9397 6.54493 14.868 5.53947 14.903 5.51449C14.9309 5.48951 14.9449 4.24673 14.9379 2.7479L14.917 0.0250253L8.03486 3.5785Z" fill="#EDEAE5"/>
<path d="M17.0628 2.76039L17.0838 5.52073L21.3597 7.72526L25.6427 9.93604L28.2628 8.58084C29.7021 7.83767 30.8829 7.20692 30.8829 7.18818C30.8829 7.1632 27.8715 5.59567 24.1964 3.69716C20.5143 1.79864 17.3982 0.193643 17.2724 0.124947L17.0488 4.41093e-05L17.0628 2.76039Z" fill="#EDEAE5"/>
<path d="M11.6543 9.38645L7.40625 11.5785V16V20.4216L11.6543 22.6136C13.9949 23.8189 15.9512 24.8057 16.0001 24.8057C16.049 24.8057 18.0054 23.8189 20.346 22.6136L24.594 20.4216V16V11.5785L20.346 9.38645C18.0054 8.18115 16.049 7.19442 15.9931 7.19442C15.9372 7.19442 13.9879 8.18115 11.6543 9.38645Z" fill="#EDEAE5"/>
<path d="M0 16C0 21.8267 0.0139738 23.1257 0.0908296 23.1007C0.139738 23.082 1.32751 22.4762 2.72489 21.758L5.27511 20.4403V16V11.5597L2.72489 10.242C1.32751 9.52383 0.139738 8.91805 0.0908296 8.89931C0.0139738 8.87433 0 10.1733 0 16Z" fill="#EDEAE5"/>
<path d="M29.3098 10.2233L26.7246 11.5597V16V20.4403L29.2748 21.758C30.6722 22.4762 31.86 23.082 31.9089 23.1007C31.9857 23.1257 31.9997 21.8267 31.9997 16.0063C31.9997 12.0843 31.9788 8.88058 31.9508 8.88058C31.9159 8.88682 30.7351 9.48635 29.3098 10.2233Z" fill="#EDEAE5"/>
<path d="M3.7233 23.4192C2.29099 24.1624 1.11719 24.7931 1.11719 24.8119C1.11719 24.8368 4.12854 26.4044 7.81063 28.3029C11.4857 30.2014 14.6019 31.8064 14.7277 31.8751L14.9512 32L14.9373 29.2397L14.9163 26.4793L10.6333 24.2685C8.27177 23.0507 6.34338 22.0578 6.3364 22.064C6.32941 22.064 5.14863 22.676 3.7233 23.4192Z" fill="#EDEAE5"/>
<path d="M21.3458 24.2748L17.0838 26.4793L17.0628 29.2397L17.0488 32L17.2724 31.8751C17.3982 31.8064 20.5143 30.2014 24.1964 28.3029C27.8715 26.4044 30.8829 24.8368 30.8829 24.8119C30.8829 24.7806 25.7755 22.1077 25.6497 22.0765C25.6287 22.0703 23.6934 23.0632 21.3458 24.2748Z" fill="#EDEAE5"/>
</svg>
