<svg width="33" height="32" viewBox="0 0 33 32" fill="none" xmlns="http://www.w3.org/2000/svg">
<path d="M29.7798 0.0313799C25.2507 0.394354 20.7277 2.17167 16.8304 5.11301C15.9296 5.7889 15.3916 6.26452 14.3281 7.30963L13.3897 8.23584L12.639 8.27339C8.92311 8.46114 4.93192 10.2009 2.20441 12.8231C1.68518 13.3237 1.66016 13.3613 1.66016 13.6116C1.66016 13.8119 1.70395 13.9245 1.83532 14.0685L2.00422 14.2625L4.68169 14.6505L7.35291 15.0385L6.98382 15.4578C6.56468 15.9334 6.48336 16.1524 6.62724 16.4591C6.76487 16.7407 15.3415 25.3081 15.573 25.3957C15.8608 25.5021 16.0797 25.4145 16.5364 25.0203L16.9555 24.651L17.3309 27.2607C17.5999 29.1256 17.7375 29.9267 17.8126 30.0393C17.9627 30.2646 18.3005 30.371 18.582 30.2771C18.9699 30.152 20.0897 28.844 21.003 27.4609C22.5732 25.0891 23.5804 22.0664 23.718 19.3566L23.7555 18.6056L24.6814 17.6669C26.0702 16.2526 26.8396 15.3138 27.8593 13.7743C30.4492 9.888 32.0006 5.13805 32.0006 1.12656C32.0006 0.450677 31.888 0.162801 31.5878 0.0501544C31.4439 -0.00616913 30.3741 -0.0186855 29.7798 0.0313799ZM23.5116 5.90154C24.8065 6.1769 25.8137 7.18447 26.0889 8.47991C26.139 8.71146 26.1828 9.01811 26.1828 9.15579C26.1828 10.3386 25.4008 11.6027 24.3561 12.1159C23.9119 12.3349 23.2488 12.5039 22.8359 12.5039C21.6599 12.5039 20.3899 11.7154 19.877 10.6765C19.658 10.2322 19.4891 9.56883 19.4891 9.15579C19.4891 8.32971 19.877 7.42228 20.49 6.80898C21.3095 5.98916 22.398 5.66373 23.5116 5.90154Z" fill="#444444"/>
<path d="M5.94455 21.3968C5.18134 21.5094 4.46193 21.8348 3.81759 22.3668C2.97306 23.0552 1.95337 25.258 0.620886 29.257C-0.0922717 31.3973 -0.117295 31.5287 0.176726 31.8229C0.470748 32.117 0.608375 32.092 2.72908 31.3848C6.73278 30.0518 8.94106 29.0255 9.6292 28.1806C11.0242 26.4784 10.9679 24.1879 9.49157 22.6296C8.85974 21.96 8.01521 21.5282 7.06433 21.3905C6.57012 21.3217 6.46378 21.3217 5.94455 21.3968Z" fill="#444444"/>
</svg>
