<svg width="32" height="32" viewBox="0 0 32 32" fill="none" xmlns="http://www.w3.org/2000/svg">
<path d="M0.893204 0.11875C0.512621 0.25625 0.186408 0.55 0.0776699 0.8625C0.015534 1.0125 0 1.73125 0.015534 2.96875C0.038835 4.74375 0.0466019 4.85625 0.201942 5.09375C0.295146 5.23125 1.18835 6.4 2.19029 7.6875C3.19223 8.975 4.07767 10.1312 4.16311 10.25C4.30291 10.4625 4.31068 10.7187 4.33398 17.375C4.34951 22.2562 4.32621 24.375 4.26408 24.6125C4.14757 25.0875 3.86796 25.2812 2.08155 26.1375C0.504854 26.9 0.217476 27.0937 0.0776699 27.4875C0.038835 27.6187 0 28.425 0 29.3625C0 30.7062 0.023301 31.0437 0.116505 31.2375C0.279612 31.5437 0.520388 31.7437 0.893204 31.8812C1.18835 31.9937 1.77864 32 16 32C30.2214 32 30.8117 31.9937 31.1068 31.8812C31.4796 31.7437 31.7204 31.5437 31.8835 31.2375C31.9767 31.0437 32 30.7062 32 29.3625C32 27.6187 31.9612 27.3687 31.6427 27.0625C31.534 26.9625 30.7107 26.525 29.8175 26.0937C28.8078 25.6 28.1243 25.2312 28 25.1C27.899 24.9937 27.7748 24.7625 27.7282 24.5875C27.6738 24.3812 27.6505 22.0562 27.666 17.375C27.6893 10.7187 27.6971 10.4625 27.8369 10.25C27.9223 10.1312 28.8078 8.975 29.8097 7.6875C30.8117 6.4 31.7049 5.23125 31.7981 5.09375C31.9534 4.85625 31.9612 4.74375 31.9845 2.96875C32.0155 0.95625 31.9845 0.76875 31.635 0.43125C31.2078 0.0249995 31.0524 -4.76837e-07 28.5359 -4.76837e-07C26.2913 -4.76837e-07 26.2835 -4.76837e-07 25.8951 0.15625C25.6777 0.24375 25.4291 0.40625 25.3204 0.54375C25.134 0.7625 25.1262 0.81875 25.0874 1.975C25.0485 3.13125 25.0408 3.19375 24.8699 3.325C24.699 3.46875 24.6835 3.46875 22.4854 3.46875C20.2874 3.46875 20.2718 3.46875 20.101 3.325C19.9301 3.19375 19.9223 3.13125 19.8835 1.975L19.8447 0.7625L19.6039 0.51875C19.4796 0.3875 19.2155 0.21875 19.0291 0.1375C18.6951 -4.76837e-07 18.633 -4.76837e-07 16.0233 -4.76837e-07C13.1184 -4.76837e-07 13.0175 0.0124995 12.5592 0.3625C12.1786 0.65625 12.1553 0.71875 12.1165 1.98125C12.0777 3.13125 12.0699 3.19375 11.899 3.325C11.7282 3.46875 11.7126 3.46875 9.51456 3.46875C7.31651 3.46875 7.30097 3.46875 7.1301 3.325C6.95922 3.19375 6.95146 3.13125 6.91262 1.975C6.87379 0.81875 6.86602 0.7625 6.67961 0.54375C6.57087 0.40625 6.32233 0.24375 6.10485 0.15625C5.7165 -4.76837e-07 5.70874 -4.76837e-07 3.46408 -4.76837e-07C1.43689 -4.76837e-07 1.17282 0.0124995 0.893204 0.11875ZM17.2583 10.4312C18.1592 10.6812 19.0447 11.2875 19.4408 11.9187C19.8524 12.5625 19.8835 12.8062 19.8835 15.2C19.8835 17.725 19.8835 17.725 19.2621 17.9812C18.9204 18.125 18.8738 18.125 16 18.125C13.1262 18.125 13.0796 18.125 12.7379 17.9812C12.1165 17.725 12.1165 17.725 12.1165 15.2C12.1165 12.7687 12.1476 12.5437 12.5903 11.8687C13.1107 11.0937 14.1981 10.475 15.3786 10.2875C15.7592 10.2312 16.8233 10.3062 17.2583 10.4312Z" fill="#EDEAE5"/>
</svg>
